<svg xmlns="http://www.w3.org/2000/svg" viewBox="0 0 420 260" width="420" height="260"><rect width="420" height="260" fill="#15171b"/><rect width="8" height="260" fill="#FFC93C"/><circle cx="210" cy="118" r="82" fill="#1c1f24"/><g fill="none" stroke="#F5F5F2" stroke-width="6" stroke-linecap="round" stroke-linejoin="round"><path d="M150 76h120a12 12 0 0 1 12 12v52a12 12 0 0 1-12 12H206l-30 26v-26h-26a12 12 0 0 1-12-12V88a12 12 0 0 1 12-12z"/><line x1="176" y1="102" x2="248" y2="102" stroke="#6b6f76"/><line x1="176" y1="122" x2="228" y2="122" stroke="#6b6f76"/></g><line x1="126" y1="196" x2="296" y2="42" stroke="#FF5A1F" stroke-width="10" stroke-linecap="round"/><text x="30" y="238" font-family="Helvetica,Arial,sans-serif" font-weight="700" font-size="11" letter-spacing="1.5" fill="#8a8d93">404 MEDIA &#183; MADISON COUNTY</text></svg>
