<svg xmlns="http://www.w3.org/2000/svg" viewBox="0 0 420 260" width="420" height="260"><rect width="420" height="260" fill="#15171b"/><rect width="8" height="260" fill="#FFC93C"/><g fill="none" stroke="#FF5A1F" stroke-width="6" stroke-linecap="round" stroke-linejoin="round"><path d="M170 178c0-22-30-44-30-70a30 30 0 1 1 60 0c0 26-30 48-30 70z"/><circle cx="170" cy="106" r="10"/></g><g fill="none" stroke="#FFC93C" stroke-width="5" stroke-linecap="round" stroke-linejoin="round"><path d="M262 150c0-16-22-32-22-51a22 22 0 1 1 44 0c0 19-22 35-22 51z"/><circle cx="262" cy="97" r="7"/></g><g stroke="#F5F5F2" stroke-width="5" stroke-linecap="round"><path d="M318 140v32M302 156h32"/><path d="M116 78v24M104 90h24"/></g><text x="30" y="238" font-family="Helvetica,Arial,sans-serif" font-weight="700" font-size="11" letter-spacing="1.5" fill="#8a8d93">FOX8 WGHP &#183; STATEWIDE EXPANSION</text></svg>
